# Blender v2.92.0 OBJ File: 'lodtest.blend'
# www.blender.org
mtllib lodtest_lod-002.mtl
o lodtest_lod-002_lodtest.003
v 0.307949 0.669491 -0.778871
v -0.343470 -0.716803 -0.706556
v 0.244421 -0.173936 -1.022409
v 0.368375 -0.759914 -0.616248
v 0.998260 0.028661 -0.371847
v 0.105487 -1.041526 0.023111
v 0.572475 0.877468 -0.134703
v 0.777614 -0.723900 0.081068
v 0.897236 0.310943 0.470349
v 0.646593 -0.240369 0.789011
v 0.313252 0.649477 0.766003
v 0.126795 -0.650679 0.834006
v -0.288059 0.158705 1.002256
v -0.870968 0.543847 0.329175
v -0.448088 -0.681880 0.683943
v -0.106706 0.989103 0.385240
v -0.813026 -0.648986 0.321053
v -0.995570 0.225498 -0.293073
v -0.379073 0.921098 -0.293731
v -0.810974 -0.300268 -0.583200
v -0.387757 0.327396 -0.914509
vt 0.165768 0.897372
vt 0.059025 0.576580
vt 0.211526 0.540861
vt 0.541282 0.708782
vt 0.308632 0.696364
vt 0.491756 0.549248
vt 0.753499 0.668343
vt 0.400050 0.420487
vt 0.723220 0.482738
vt 0.567674 0.365290
vt 0.143007 0.251710
vt 0.287989 0.311147
vt 0.939330 0.213403
vt 0.699083 0.273937
vt 0.449739 0.209312
vt 0.676346 0.050077
vt 0.706381 0.145417
vt 0.436489 0.946853
vt 0.249567 0.985246
vt 0.400526 0.817143
vt 0.588449 0.901116
vt 0.716075 0.828418
vt 0.913144 0.777938
vt 0.902312 0.527606
vt 0.330378 0.067871
vt 0.127413 0.011538
vt 0.463316 0.008533
vt 0.761262 0.983976
vn 0.0664 0.9898 -0.1258
vn 0.6158 0.1754 -0.7682
vn 0.6665 -0.3243 -0.6713
vn 0.7342 0.4974 -0.4621
vn 0.8875 0.4584 -0.0472
vn 0.9173 -0.2286 0.3259
vn 0.3940 0.8577 0.3305
vn 0.3640 -0.8427 0.3966
vn 0.5505 -0.6384 0.5379
vn 0.5402 0.2234 0.8113
vn 0.1745 -0.1139 0.9780
vn -0.7050 -0.1298 0.6972
vn -0.7354 0.6516 -0.1861
vn -0.6353 0.5625 -0.5291
vn -0.4089 -0.1949 -0.8915
vn -0.2164 0.7071 -0.6732
vn -0.0041 -0.9145 -0.4045
vn 0.0711 -0.5580 -0.8268
vn 0.1001 0.9341 -0.3427
vn 0.4325 -0.8772 -0.2085
vn 0.7669 -0.4807 -0.4252
vn 0.9682 -0.1781 0.1758
vn 0.5967 0.7202 0.3540
vn 0.2717 0.1264 0.9541
vn -0.1989 0.6121 0.7653
vn -0.0647 -0.8983 0.4347
vn -0.4010 0.6012 0.6912
vn -0.7669 -0.0416 0.6404
vn -0.3165 -0.9190 0.2350
vn -0.5063 0.8543 0.1175
vn -0.9743 -0.0488 0.2201
vn -0.3156 -0.1982 -0.9280
vn -0.9552 -0.2755 -0.1084
vn -0.4263 -0.8944 -0.1357
vn -0.6795 -0.6840 -0.2653
vn -0.7195 0.1244 -0.6833
vn 0.0528 0.2734 -0.9605
vn -0.2247 -0.3074 0.9247
usemtl None
s off
f 19/1/1 16/2/1 7/3/1
f 3/4/2 1/5/2 5/6/2
f 3/4/3 5/6/3 4/7/3
f 1/5/4 7/3/4 5/6/4
f 5/6/5 7/3/5 9/8/5
f 8/9/6 9/8/6 10/10/6
f 16/11/7 11/12/7 7/3/7
f 6/13/8 8/9/8 12/14/8
f 10/10/9 12/14/9 8/9/9
f 9/8/10 11/12/10 10/10/10
f 10/10/11 13/15/11 12/14/11
f 13/15/12 17/16/12 15/17/12
f 19/1/13 18/18/13 14/19/13
f 18/18/14 19/1/14 21/20/14
f 20/21/15 21/20/15 2/22/15
f 19/1/16 1/5/16 21/20/16
f 2/22/17 4/7/17 6/23/17
f 4/7/18 2/22/18 3/4/18
f 19/1/19 7/3/19 1/5/19
f 6/24/20 4/7/20 8/9/20
f 4/7/21 5/6/21 8/9/21
f 8/9/22 5/6/22 9/8/22
f 9/8/23 7/3/23 11/12/23
f 10/10/24 11/12/24 13/15/24
f 11/12/25 16/11/25 13/15/25
f 12/14/26 15/17/26 6/13/26
f 13/15/27 16/11/27 14/25/27
f 17/16/28 13/15/28 14/25/28
f 17/16/29 6/13/29 15/17/29
f 14/25/30 16/11/30 19/26/30
f 18/27/31 17/16/31 14/25/31
f 3/4/32 2/22/32 21/20/32
f 18/18/33 20/21/33 17/28/33
f 17/28/34 2/22/34 6/23/34
f 17/28/35 20/21/35 2/22/35
f 20/21/36 18/18/36 21/20/36
f 21/20/37 1/5/37 3/4/37
f 15/17/38 12/14/38 13/15/38
