# Blender v2.91.2 OBJ File: 'box.blend'
# www.blender.org
mtllib box.mtl
o box
v -0.250000 -0.250000 0.250000
v -0.250000 0.250000 0.250000
v -0.250000 -0.250000 -0.250000
v -0.250000 0.250000 -0.250000
v 0.250000 -0.250000 0.250000
v 0.250000 0.250000 0.250000
v 0.250000 -0.250000 -0.250000
v 0.250000 0.250000 -0.250000
v -0.250000 -0.193434 0.193434
v -0.250000 0.193434 0.193434
v -0.250000 0.193434 -0.193434
v -0.250000 -0.193434 -0.193434
v -0.193434 -0.193434 -0.250000
v -0.193434 0.193434 -0.250000
v 0.193434 0.193434 -0.250000
v 0.193434 -0.193434 -0.250000
v 0.250000 -0.193434 -0.193434
v 0.250000 0.193434 -0.193434
v 0.250000 0.193434 0.193434
v 0.250000 -0.193434 0.193434
v 0.193434 -0.193434 0.250000
v 0.193434 0.193434 0.250000
v -0.193434 0.193434 0.250000
v -0.193434 -0.193434 0.250000
v -0.193434 -0.250000 -0.193434
v 0.193434 -0.250000 -0.193434
v 0.193434 -0.250000 0.193434
v -0.193434 -0.250000 0.193434
v 0.193434 0.250000 -0.193434
v -0.193434 0.250000 -0.193434
v -0.193434 0.250000 0.193434
v 0.193434 0.250000 0.193434
v -0.244153 -0.193434 0.193434
v -0.244153 0.193434 0.193434
v -0.244153 0.193434 -0.193434
v -0.244153 -0.193434 -0.193434
v -0.193434 -0.193434 -0.244153
v -0.193434 0.193434 -0.244153
v 0.193434 0.193434 -0.244153
v 0.193434 -0.193434 -0.244153
v 0.244153 -0.193434 -0.193434
v 0.244153 0.193434 -0.193434
v 0.244153 0.193434 0.193434
v 0.244153 -0.193434 0.193434
v 0.193434 -0.193434 0.244153
v 0.193434 0.193434 0.244153
v -0.193434 0.193434 0.244153
v -0.193434 -0.193434 0.244153
v -0.193434 -0.244153 -0.193434
v 0.193434 -0.244153 -0.193434
v 0.193434 -0.244153 0.193434
v -0.193434 -0.244153 0.193434
v 0.193434 0.244153 -0.193434
v -0.193434 0.244153 -0.193434
v -0.193434 0.244153 0.193434
v 0.193434 0.244153 0.193434
vt 0.067791 0.074569
vt 0.067791 0.952788
vt 0.052462 0.952788
vt 0.052462 0.074569
vt 0.053269 0.952788
vt 0.053269 0.074569
vt 0.068597 0.074569
vt 0.068597 0.952788
vt 0.068597 0.028359
vt 0.068597 0.952788
vt 0.052462 0.952788
vt 0.052462 0.028359
vt 0.052462 0.952788
vt 0.052462 0.074569
vt 0.067791 0.074569
vt 0.067791 0.952788
vt 0.053268 0.952788
vt 0.053268 0.074569
vt 0.068597 0.074569
vt 0.068597 0.952788
vt 0.053268 0.952788
vt 0.053268 0.074569
vt 0.068597 0.074569
vt 0.068597 0.952788
vt 0.000000 0.000000
vt 0.000000 1.000000
vt 0.113132 0.886868
vt 0.113132 0.113132
vt 1.000000 1.000000
vt 0.886868 0.886868
vt 1.000000 0.000000
vt 0.886868 0.113132
vt 0.000000 0.000000
vt 0.000000 1.000000
vt 0.113132 0.886868
vt 0.113132 0.113132
vt 1.000000 1.000000
vt 0.886868 0.886868
vt 1.000000 0.000000
vt 0.886868 0.113132
vt 0.886868 0.886868
vt 0.886868 0.113132
vt 0.000000 1.000000
vt 0.113132 0.886868
vt 0.000000 0.000000
vt 0.113132 0.113132
vt 1.000000 0.000000
vt 1.000000 1.000000
vt 0.886868 0.886868
vt 0.886868 0.113132
vt 0.113132 0.886868
vt 0.113132 0.113132
vt 0.000000 1.000000
vt 1.000000 1.000000
vt 0.886868 0.886868
vt 0.113132 0.886868
vt 0.886868 0.113132
vt 0.113132 0.113132
vt 0.113132 0.886868
vt 0.886868 0.886868
vt 0.000000 0.000000
vt 0.113132 0.113132
vt 1.000000 0.000000
vt 0.886868 0.113132
vt 0.113132 0.113132
vt 0.113132 0.886868
vt 0.886868 0.886868
vt 0.886868 0.113132
vt 0.113132 0.113132
vt 0.113132 0.886868
vt 0.886868 0.886868
vt 0.886868 0.113132
vt 0.886868 0.113132
vt 0.886868 0.886868
vt 0.113132 0.886868
vt 0.113132 0.113132
vt 0.886868 0.113132
vt 0.886868 0.886868
vt 0.113132 0.886868
vt 0.113132 0.113132
vt 0.113132 0.886868
vt 0.886868 0.886868
vt 0.886868 0.113132
vt 0.113132 0.113132
vt 0.886868 0.886868
vt 0.113132 0.886868
vt 0.113132 0.113132
vt 0.886868 0.113132
vt 0.052462 0.952788
vt 0.052462 0.074569
vt 0.067791 0.074569
vt 0.067791 0.952788
vt 0.052462 0.952788
vt 0.052462 0.074569
vt 0.067791 0.074569
vt 0.067791 0.952788
vt 0.067791 0.074569
vt 0.067791 0.952788
vt 0.052462 0.952788
vt 0.052462 0.074569
vt 0.052462 0.952788
vt 0.052462 0.074569
vt 0.067791 0.074569
vt 0.067791 0.952788
vt 0.052462 0.952788
vt 0.052462 0.028359
vt 0.068597 0.028359
vt 0.068597 0.952788
vt 0.067791 0.074568
vt 0.067791 0.952788
vt 0.052462 0.952788
vt 0.052462 0.074568
vt 0.068597 0.074569
vt 0.068597 0.952788
vt 0.053269 0.952788
vt 0.053269 0.074569
vt 0.068597 0.074569
vt 0.068597 0.952788
vt 0.053269 0.952788
vt 0.053269 0.074569
vt 0.053268 0.952788
vt 0.053268 0.074569
vt 0.068597 0.074569
vt 0.068597 0.952788
vt 0.052462 0.952788
vt 0.052462 0.074569
vt 0.067791 0.074569
vt 0.067791 0.952788
vt 0.067791 0.074569
vt 0.067791 0.952788
vt 0.052462 0.952788
vt 0.052462 0.074569
vt 0.053269 0.952788
vt 0.053269 0.074569
vt 0.068597 0.074569
vt 0.068597 0.952788
vt 0.067791 0.074569
vt 0.067791 0.952788
vt 0.052462 0.952788
vt 0.052462 0.074569
vt 0.068597 0.074569
vt 0.068597 0.952788
vt 0.053269 0.952788
vt 0.053269 0.074569
vt 0.068597 0.074568
vt 0.068597 0.952788
vt 0.053269 0.952788
vt 0.053269 0.074568
vt 0.052462 0.952788
vt 0.052462 0.074569
vt 0.067791 0.074569
vt 0.067791 0.952788
vt 0.052462 0.952788
vt 0.052462 0.074569
vt 0.067791 0.074569
vt 0.067791 0.952788
vt 0.053268 0.952788
vt 0.053268 0.074569
vt 0.068597 0.074569
vt 0.068597 0.952788
vn -1.0000 0.0000 0.0000
vn 0.0000 1.0000 0.0000
vn 0.0000 0.0000 1.0000
vn 1.0000 0.0000 0.0000
vn 0.0000 0.0000 -1.0000
vn 0.0000 -1.0000 0.0000
usemtl m_box
s off
f 21/1/1 22/2/1 46/3/1 45/4/1
f 16/5/2 13/6/2 37/7/2 40/8/2
f 17/9/3 18/10/3 42/11/3 41/12/3
f 12/13/2 9/14/2 33/15/2 36/16/2
f 13/17/4 14/18/4 38/19/4 37/20/4
f 9/21/5 10/22/5 34/23/5 33/24/5
f 1/25/1 2/26/1 10/27/1 9/28/1
f 2/26/1 4/29/1 11/30/1 10/27/1
f 4/29/1 3/31/1 12/32/1 11/30/1
f 3/31/1 1/25/1 9/28/1 12/32/1
f 3/33/5 4/34/5 14/35/5 13/36/5
f 4/34/5 8/37/5 15/38/5 14/35/5
f 8/37/5 7/39/5 16/40/5 15/38/5
f 7/39/5 3/33/5 13/36/5 16/40/5
f 7/39/4 8/37/4 18/41/4 17/42/4
f 8/37/4 6/43/4 19/44/4 18/41/4
f 6/43/4 5/45/4 20/46/4 19/44/4
f 5/45/4 7/39/4 17/42/4 20/46/4
f 5/47/3 6/48/3 22/49/3 21/50/3
f 6/48/3 2/26/3 23/51/3 22/49/3
f 2/26/3 1/25/3 24/52/3 23/51/3
f 1/25/3 5/47/3 21/50/3 24/52/3
f 3/53/6 7/54/6 26/55/6 25/56/6
f 7/54/6 5/47/6 27/57/6 26/55/6
f 5/47/6 1/25/6 28/58/6 27/57/6
f 1/25/6 3/53/6 25/56/6 28/58/6
f 8/37/2 4/34/2 30/59/2 29/60/2
f 4/34/2 2/61/2 31/62/2 30/59/2
f 2/61/2 6/63/2 32/64/2 31/62/2
f 6/63/2 8/37/2 29/60/2 32/64/2
f 33/65/1 34/66/1 35/67/1 36/68/1
f 37/69/5 38/70/5 39/71/5 40/72/5
f 41/73/4 42/74/4 43/75/4 44/76/4
f 45/77/3 46/78/3 47/79/3 48/80/3
f 49/81/6 50/82/6 51/83/6 52/84/6
f 53/85/2 54/86/2 55/87/2 56/88/2
f 10/89/6 11/90/6 35/91/6 34/92/6
f 20/93/2 17/94/2 41/95/2 44/96/2
f 25/97/3 26/98/3 50/99/3 49/100/3
f 14/101/6 15/102/6 39/103/6 38/104/6
f 24/105/2 21/106/2 45/107/2 48/108/2
f 29/109/3 30/110/3 54/111/3 53/112/3
f 11/113/3 12/114/3 36/115/3 35/116/3
f 18/117/6 19/118/6 43/119/6 42/120/6
f 28/121/4 25/122/4 49/123/4 52/124/4
f 15/125/1 16/126/1 40/127/1 39/128/1
f 22/129/6 23/130/6 47/131/6 46/132/6
f 32/133/1 29/134/1 53/135/1 56/136/1
f 19/137/5 20/138/5 44/139/5 43/140/5
f 26/141/1 27/142/1 51/143/1 50/144/1
f 23/145/4 24/146/4 48/147/4 47/148/4
f 30/149/4 31/150/4 55/151/4 54/152/4
f 27/153/5 28/154/5 52/155/5 51/156/5
f 31/157/5 32/158/5 56/159/5 55/160/5
